# xmcd CD database file
#
# Track frame offsets:
#	150
#	16932
#	33497
#	47222
#	61815
#	73862
#	85215
#	98045
#	110352
#	123740
#	136427
#	150430
#	163345
#	176665
#	187942
#	206710
#	219147
#	233725
#	248327
#	257742
#
# Disc length: 3623 seconds
#
# Revision: 0
# Processed by: cddbd v1.5.1PL2 Copyright (c) Steve Scherf et al.
# Submitted via: CDex 1.51
#
DISCID=100e2514
DTITLE=ロマンチック・ファンタジア - 思い出ばかりセレクション　Vol.2
DYEAR=2006
DGENRE=Retro
TTITLE0=イエスタデイ・ワンス・モア
TTITLE1=エーゲ海の真珠
TTITLE2=イエスタデイ
TTITLE3=モナリザ
TTITLE4=太陽は燃えている
TTITLE5=オリーブの首飾り
TTITLE6=雨にぬれても
TTITLE7=トワイライトタイム
TTITLE8=ラスト・ワルツ
TTITLE9=みじかくも美しく燃え
TTITLE10=ラブ・レター
TTITLE11=黒い瞳
TTITLE12=サバの女王
TTITLE13=珊瑚礁の彼方
TTITLE14=コパカバーナ
TTITLE15=青い影
TTITLE16=星に願いを
TTITLE17=夜霧のしのび縫い
TTITLE18=ハイ・ヌーン
TTITLE19=ある愛の詩
EXTD=YEAR: 2006.03.05
EXTT0=
EXTT1=
EXTT2=
EXTT3=
EXTT4=
EXTT5=
EXTT6=
EXTT7=
EXTT8=
EXTT9=
EXTT10=
EXTT11=
EXTT12=
EXTT13=
EXTT14=
EXTT15=
EXTT16=
EXTT17=
EXTT18=
EXTT19=
PLAYORDER=
